<svg width="53" height="52" viewBox="0 0 53 52" fill="none" xmlns="http://www.w3.org/2000/svg">
<path fill-rule="evenodd" clip-rule="evenodd" d="M0.619507 26.0295C0.619507 38.8987 9.96613 49.6 22.1903 51.77V33.0746H15.7191V25.885H22.1903V20.1321C22.1903 13.6608 26.3599 10.0672 32.2574 10.0672C34.1254 10.0672 36.1401 10.354 38.0082 10.6409V17.2567H34.7014C31.5369 17.2567 30.8186 18.8378 30.8186 20.8526V25.885H37.7213L36.5716 33.0746H30.8186V51.77C43.0428 49.6 52.3894 38.9008 52.3894 26.0295C52.3894 11.713 40.7412 6.10352e-05 26.5045 6.10352e-05C12.2677 6.10352e-05 0.619507 11.713 0.619507 26.0295Z" fill="#AE2A47"/>
</svg>
