<svg width="45" height="46" viewBox="0 0 45 46" fill="none" xmlns="http://www.w3.org/2000/svg">
<path d="M29.7452 22.885C29.7452 24.3048 29.3242 25.6927 28.5354 26.8733C27.7465 28.0538 26.6254 28.974 25.3136 29.5173C24.0019 30.0606 22.5585 30.2028 21.1659 29.9258C19.7734 29.6488 18.4943 28.9651 17.4903 27.9611C16.4863 26.9572 15.8026 25.678 15.5256 24.2855C15.2486 22.8929 15.3908 21.4495 15.9341 20.1378C16.4775 18.826 17.3976 17.7049 18.5781 16.9161C19.7587 16.1272 21.1466 15.7062 22.5664 15.7062C24.4685 15.7121 26.2911 16.4704 27.6361 17.8154C28.9811 19.1604 29.7393 20.9829 29.7452 22.885V22.885ZM45.0001 13.0142V32.7558C45.0001 36.0876 43.6765 39.2831 41.3205 41.639C38.9645 43.995 35.7691 45.3186 32.4372 45.3186H12.6956C9.36377 45.3186 6.16837 43.995 3.81238 41.639C1.45639 39.2831 0.132813 36.0876 0.132812 32.7558V13.0142C0.132813 9.68232 1.45639 6.48691 3.81238 4.13092C6.16837 1.77494 9.36377 0.451355 12.6956 0.451355H32.4372C35.7691 0.451355 38.9645 1.77494 41.3205 4.13092C43.6765 6.48691 45.0001 9.68232 45.0001 13.0142V13.0142ZM33.3346 22.885C33.3346 20.7552 32.703 18.6733 31.5198 16.9025C30.3366 15.1317 28.6548 13.7515 26.6872 12.9365C24.7196 12.1215 22.5545 11.9083 20.4657 12.3237C18.3769 12.7392 16.4582 13.7648 14.9522 15.2708C13.4463 16.7767 12.4207 18.6954 12.0052 20.7842C11.5897 22.873 11.803 25.0382 12.618 27.0058C13.433 28.9734 14.8132 30.6551 16.584 31.8384C18.3548 33.0216 20.4367 33.6531 22.5664 33.6531C25.4223 33.6531 28.1612 32.5186 30.1807 30.4992C32.2001 28.4798 33.3346 25.7409 33.3346 22.885ZM36.924 11.2195C36.924 10.6871 36.7661 10.1666 36.4703 9.72388C36.1745 9.28118 35.754 8.93613 35.2621 8.73238C34.7702 8.52863 34.2289 8.47531 33.7067 8.57919C33.1845 8.68306 32.7049 8.93945 32.3284 9.31594C31.9519 9.69243 31.6955 10.1721 31.5916 10.6943C31.4877 11.2165 31.5411 11.7578 31.7448 12.2497C31.9486 12.7416 32.2936 13.162 32.7363 13.4578C33.179 13.7536 33.6995 13.9115 34.2319 13.9115C34.9459 13.9115 35.6306 13.6279 36.1355 13.1231C36.6403 12.6182 36.924 11.9335 36.924 11.2195Z" fill="#DA3559"/>
</svg>
