<svg width="50" height="51" viewBox="0 0 50 51" fill="none" xmlns="http://www.w3.org/2000/svg">
<path d="M25.0884 0.725708C11.3642 0.725708 0.238892 11.8511 0.238892 25.5753C0.238892 39.2995 11.3642 50.4248 25.0884 50.4248C38.8127 50.4248 49.938 39.2995 49.938 25.5753C49.938 11.8511 38.8127 0.725708 25.0884 0.725708ZM19.0055 35.8749H13.9734V19.6813H19.0055V35.8749ZM16.4584 17.6933C14.8691 17.6933 13.8414 16.5673 13.8414 15.1747C13.8414 13.7536 14.9001 12.6613 16.5231 12.6613C18.1461 12.6613 19.1401 13.7536 19.1711 15.1747C19.1711 16.5673 18.1461 17.6933 16.4584 17.6933ZM37.3838 35.8749H32.3518V26.9006C32.3518 24.8117 31.6218 23.3932 29.8021 23.3932C28.4121 23.3932 27.5863 24.3535 27.2214 25.2776C27.0868 25.6063 27.0531 26.0723 27.0531 26.5356V35.8723H22.0185V24.8453C22.0185 22.8237 21.9538 21.1334 21.8865 19.6787H26.2584L26.4888 21.9281H26.5898C27.2524 20.872 28.8754 19.3137 31.5907 19.3137C34.9014 19.3137 37.3838 21.532 37.3838 26.3V35.8749Z" fill="#DA3559"/>
</svg>
