<svg width="52" height="52" viewBox="0 0 52 52" fill="none" xmlns="http://www.w3.org/2000/svg">
<path d="M25.885 0C11.5905 0 0 11.5905 0 25.885C0 40.1795 11.5905 51.7699 25.885 51.7699C40.1795 51.7699 51.7699 40.1795 51.7699 25.885C51.7699 11.5905 40.1795 0 25.885 0ZM38.3248 19.5119C38.3421 19.7835 38.3421 20.0666 38.3421 20.344C38.3421 28.8259 31.8824 38.5963 20.0782 38.5963C16.4381 38.5963 13.0638 37.539 10.2211 35.7189C10.7411 35.7767 11.238 35.7998 11.7696 35.7998C14.7741 35.7998 17.5359 34.7829 19.7373 33.0611C16.9177 33.0033 14.5487 31.1544 13.7398 28.6121C14.7278 28.7566 15.6176 28.7566 16.6346 28.4966C15.1827 28.2016 13.8778 27.4131 12.9414 26.265C12.0051 25.117 11.495 23.6802 11.498 22.1987V22.1178C12.3474 22.5973 13.3469 22.892 14.3927 22.9325C13.5136 22.3465 12.7926 21.5528 12.2937 20.6215C11.7948 19.6902 11.5334 18.6502 11.5327 17.5937C11.5327 16.3977 11.8447 15.3056 12.4051 14.3581C14.0166 16.3418 16.0275 17.9643 18.307 19.12C20.5866 20.2757 23.0839 20.9388 25.6365 21.0662C24.7294 16.7039 27.9881 13.1736 31.9055 13.1736C33.7544 13.1736 35.4185 13.9478 36.5914 15.1959C38.0416 14.9243 39.4283 14.3812 40.6648 13.6532C40.1852 15.1381 39.1799 16.3919 37.8452 17.1835C39.1394 17.0448 40.3875 16.6866 41.543 16.1839C40.6706 17.4666 39.5786 18.6048 38.3248 19.5119Z" fill="#DA3559"/>
</svg>
